<svg xmlns="http://www.w3.org/2000/svg" viewBox="0 0 333334 332780" shape-rendering="geometricPrecision" text-rendering="geometricPrecision" image-rendering="optimizeQuality" fill-rule="evenodd" clip-rule="evenodd"><path d="M67387 0h198559c37063 0 67387 30324 67387 67387v198005c0 37063-30324 67387-67387 67387H67387C30324 332779 0 302455 0 265392V67387C0 30324 30324 0 67387 0zm192804 188911c8471 0 15339 6868 15339 15339 0 8472-6868 15339-15339 15339h-13707l12369 21361c4186 7375 1601 16748-5774 20934-7376 4186-16748 1600-20933-5775l-21148-36520h-292l-18180-30679h707l-17948-30995 17460-31129 35974 62123h31472zM137016 91830c-4186-7376-1601-16748 5775-20934 7375-4186 16748-1601 20933 5774l3533 6102 3041-5232c4186-7375 13559-9960 20934-5774s9960 13559 5775 20933l-12043 20650 35 60-9218 15688-34881 59815h36634l17798 30678-71907 1-19809 34780c-4186 7375-13559 9960-20933 5774-7375-4186-9961-13558-5774-20934l11175-19619H73143c-8471 0-15339-6868-15339-15340 0-8471 6868-15339 15339-15339h32415l43922-75559-12464-21524z"/></svg>