<svg xmlns="http://www.w3.org/2000/svg" viewBox="0 0 333333 332779" shape-rendering="geometricPrecision" text-rendering="geometricPrecision" image-rendering="optimizeQuality" fill-rule="evenodd" clip-rule="evenodd"><path d="M67387 0h198558c37064 0 67388 30324 67388 67387v198004c0 37064-30324 67387-67388 67387H67387C30324 332778 0 302454 0 265391V67387C0 30324 30324 0 67387 0zm15161 77982c544-1762 1288-3270 2204-4534l92974 93102-92483 93392c-611-724-1146-1525-1608-2393-2958-5568-2128-14137-2128-20421V94564c0-5183-476-11665 1041-16581zm11848-9565c176-11 354-19 532-24 7635-216 11624 3209 17880 6896l98805 57040-26584 26845-90633-90758zm126511 69279l21120 12192c4202 2426 7842 4206 11003 8085 5147 6319 4476 13561-2940 19659-3277 2695-7702 4932-11402 7078l-17833 10340-28491-28529 28544-28824zm-9343 62741l-104389 60530c-3445 1998-5119 2837-9255 3298-859 96-1686 138-2480 130l89619-90499 26505 26541z"/></svg>