<?xml version="1.0" encoding="utf-8"?>
<svg version="1.1" id="Layer_1" xmlns="http://www.w3.org/2000/svg"
    xmlns:xlink="http://www.w3.org/1999/xlink" x="0px" y="0px" width="122.879px" height="102.401px"
    viewBox="0 0 122.879 102.401" enable-background="new 0 0 122.879 102.401" xml:space="preserve">
    <g>
        <path
        fill="#98b126"
            d="M46.736,0H30.311H16.698C12.083,0,8.144,1.619,4.881,4.881C1.619,8.144,0,12.083,0,16.698v29.313 c0,4.639,1.619,8.579,4.881,11.841c3.262,3.238,7.202,4.882,11.817,4.882c4.301,0,8.603,0,12.904,0 c-0.942,3.673-2.15,7.178-3.624,10.463c-1.45,3.311-3.891,6.477-7.298,9.497c6.525-1.691,12.325-4.229,17.423-7.587 c5.099-3.335,9.497-7.468,13.17-12.373c3.691,0,7.384,0,11.075,0c4.615,0,8.554-1.644,11.816-4.882 c3.264-3.262,4.883-7.202,4.883-11.841V16.698c0-4.615-1.619-8.555-4.883-11.817C68.902,1.619,64.963,0,60.348,0H46.736L46.736,0z M122.879,33.663v29.313c0,2.667-0.475,5.159-1.432,7.479c-0.953,2.314-2.375,4.416-4.266,6.308 c-0.822,0.814-1.684,1.545-2.584,2.188c-0.928,0.66-1.873,1.221-2.84,1.681c-0.051,0.024-0.104,0.047-0.156,0.068 c-1.236,0.575-2.525,1.009-3.863,1.299c-1.389,0.302-2.824,0.453-4.311,0.453h-8.734h-0.018h-0.018h-0.018h-0.016h-0.467 c0.186,0.59,0.379,1.175,0.578,1.755c0.568,1.639,1.207,3.253,1.918,4.837l0.01,0.021h0.002c0.641,1.463,1.496,2.89,2.564,4.279 c1.102,1.434,2.447,2.854,4.033,4.261c1.135,1.004,1.24,2.737,0.238,3.871c-0.707,0.799-1.777,1.088-2.742,0.838l-0.002,0.001 c-3.406-0.884-6.625-1.987-9.654-3.309c-3.031-1.321-5.891-2.87-8.58-4.642l-0.006,0.008c-2.672-1.747-5.172-3.715-7.494-5.897 c-1.969-1.85-3.807-3.857-5.514-6.023h-0.928h-0.016h-0.02h-0.016h-0.018h-8.735c-1.818,0-3.56-0.227-5.223-0.676 c-1.665-0.45-3.251-1.134-4.756-2.048c-1.295-0.784-1.709-2.469-0.925-3.764c0.784-1.295,2.469-1.709,3.764-0.925 c1.031,0.626,2.144,1.102,3.337,1.424c1.186,0.32,2.454,0.482,3.803,0.482h8.735h0.018h0.016h0.02h0.016h2.271v0.011 c0.834,0,1.656,0.379,2.193,1.097c1.732,2.313,3.648,4.456,5.74,6.422c2.066,1.941,4.316,3.708,6.742,5.295l-0.006,0.008 l0.006,0.003c2.305,1.519,4.777,2.865,7.418,4.038c-0.5-0.846-0.938-1.699-1.314-2.561l0,0c-0.752-1.681-1.445-3.438-2.08-5.267 c-0.602-1.738-1.141-3.525-1.617-5.353c-0.105-0.294-0.164-0.61-0.164-0.94c0-1.521,1.232-2.753,2.752-2.753h4.102h0.016h0.018 h0.018h0.018h8.734c1.107,0,2.156-0.108,3.148-0.324c0.943-0.204,1.84-0.503,2.689-0.895c0.041-0.022,0.084-0.044,0.127-0.064 c0.717-0.342,1.393-0.737,2.021-1.186c0.656-0.469,1.289-1.004,1.895-1.606c1.371-1.37,2.391-2.87,3.063-4.501 c0.67-1.624,1.002-3.421,1.002-5.394V33.663c0-1.96-0.332-3.751-1.002-5.373c-0.672-1.628-1.691-3.127-3.063-4.498l0,0l-0.01-0.011 c-1.371-1.371-2.869-2.391-4.498-3.062c-1.621-0.669-3.412-1.002-5.373-1.002h-7.873h-5.738c-1.521,0-2.754-1.233-2.754-2.753 c0-1.521,1.232-2.753,2.754-2.753h5.738h7.873c2.656,0,5.143,0.476,7.459,1.432c2.307,0.952,4.406,2.37,6.295,4.256l0.004,0.005 l0.006,0.005l0.002,0.002c1.887,1.888,3.303,3.986,4.254,6.292C122.404,28.521,122.879,31.008,122.879,33.663L122.879,33.663z" />
    </g>
</svg>